<?xml version="1.0" encoding="UTF-8" standalone="no"?>
<!-- Created with Inkscape (http://www.inkscape.org/) -->

<svg
   xmlns:dc="http://purl.org/dc/elements/1.1/"
   xmlns:cc="http://creativecommons.org/ns#"
   xmlns:rdf="http://www.w3.org/1999/02/22-rdf-syntax-ns#"
   xmlns:svg="http://www.w3.org/2000/svg"
   xmlns="http://www.w3.org/2000/svg"
   xmlns:sodipodi="http://sodipodi.sourceforge.net/DTD/sodipodi-0.dtd"
   xmlns:inkscape="http://www.inkscape.org/namespaces/inkscape"
   id="svg2"
   version="1.1"
   inkscape:version="0.91 r13725"
   xml:space="preserve"
   width="569.2196"
   height="576.14874"
   viewBox="0 0 569.2196 576.14874"
   sodipodi:docname="octopus.svg"><metadata
     id="metadata8"><rdf:RDF><cc:Work
         rdf:about=""><dc:format>image/svg+xml</dc:format><dc:type
           rdf:resource="http://purl.org/dc/dcmitype/StillImage" /><dc:title></dc:title></cc:Work></rdf:RDF></metadata><defs
     id="defs6" /><sodipodi:namedview
     pagecolor="#ffffff"
     bordercolor="#666666"
     borderopacity="1"
     objecttolerance="10"
     gridtolerance="10"
     guidetolerance="10"
     inkscape:pageopacity="0"
     inkscape:pageshadow="2"
     inkscape:window-width="529"
     inkscape:window-height="853"
     id="namedview4"
     showgrid="false"
     fit-margin-top="0"
     fit-margin-left="0"
     fit-margin-right="0"
     fit-margin-bottom="0"
     inkscape:zoom="0.30739674"
     inkscape:cx="369.06775"
     inkscape:cy="1024.185"
     inkscape:window-x="1067"
     inkscape:window-y="22"
     inkscape:window-maximized="0"
     inkscape:current-layer="g12" /><g
     id="g10"
     inkscape:groupmode="layer"
     inkscape:label="ink_ext_XXXXXX"
     transform="matrix(1.25,0,0,-1.25,-3.30413,-64.167489)"><g
       id="g12"
       transform="matrix(0.1,0,0,0.1,23.422502,93.689999)"><path
         d="m 3906.465,-3815.4499 c -7.83,0.36 -13.88,6.99 -13.51,14.83 0.35,7.81 6.98,13.86 14.82,13.5 7.83,-0.36 13.89,-6.99 13.53,-14.82 -0.36,-7.83 -7.01,-13.88 -14.84,-13.51 m -36.3,96.64 c -8.71,0.41 -15.45,7.8 -15.06,16.52 0.4,8.7 7.82,15.44 16.54,15.03 8.68,-0.39 15.44,-7.79 15.04,-16.51 -0.41,-8.71 -7.8,-15.44 -16.52,-15.04 m -47.07,75.84 c -9.63,0.44 -17.05,8.59 -16.6,18.21 0.45,9.59 8.6,17 18.2,16.56 9.6,-0.44 17.04,-8.59 16.61,-18.18 -0.47,-9.61 -8.61,-17.04 -18.21,-16.59 m -57.09,56.88 c -10.49,0.5 -18.58,9.39 -18.11,19.88 0.47,10.49 9.38,18.6 19.88,18.11 10.48,-0.48 18.6,-9.39 18.13,-19.88 -0.53,-10.48 -9.41,-18.58 -19.9,-18.11 m -66.3,39.79 c -11.39,0.53 -20.18,10.17 -19.63,21.55 0.51,11.38 10.15,20.16 21.57,19.64 11.36,-0.52 20.15,-10.18 19.62,-21.55 -0.53,-11.38 -10.18,-20.18 -21.56,-19.64 m -74.75,24.5 c -12.29,0.56 -21.76,10.96 -21.19,23.24 0.57,12.27 10.99,21.75 23.23,21.17 12.27,-0.57 21.76,-10.97 21.19,-23.24 -0.58,-12.27 -10.97,-21.74 -23.23,-21.17 m -82.44,11.09 c -13.14,0.61 -23.3,11.75 -22.7,24.92 0.61,13.16 11.77,23.32 24.94,22.71 13.14,-0.61 23.33,-11.77 22.7,-24.93 -0.61,-13.15 -11.78,-23.33 -24.94,-22.7 m -89.3,-0.49 c -14.04,0.65 -24.91,12.57 -24.26,26.62 0.65,14.02 12.55,24.89 26.63,24.23 14.04,-0.66 24.88,-12.56 24.25,-26.61 -0.66,-14.04 -12.57,-24.89 -26.62,-24.24 m -95.44,-10.21 c -14.93,0.67 -26.47,13.35 -25.77,28.28 0.68,14.93 13.34,26.47 28.28,25.78 14.92,-0.7 26.48,-13.35 25.79,-28.29 -0.71,-14.93 -13.36,-26.48 -28.3,-25.77 m -100.79,-18.1 c -15.79,0.73 -28.03,14.14 -27.3,29.99 0.75,15.8 14.14,28.03 29.99,27.29 15.8,-0.73 28.03,-14.15 27.29,-29.96 -0.74,-15.82 -14.13,-28.06 -29.98,-27.32 m -99.25,-23.8 c -1.96,-0.31 -4.01,-0.43 -6.08,-0.33 -8.59,0.41 -16.14,4.38 -21.4,10.41 -4.93,5.66 -7.82,13.14 -7.46,21.25 0.79,16.69 14.97,29.62 31.67,28.84 16.71,-0.77 29.62,-14.95 28.86,-31.65 -0.68,-14.64 -11.63,-26.36 -25.59,-28.52 m -82.61,-3.29 c -3.11,-15.06 -16.7,-26.1 -32.57,-25.36 -17.61,0.81 -31.22,15.74 -30.39,33.35 0.5,10.87 6.41,20.19 15,25.56 5.31,3.32 11.62,5.12 18.33,4.82 17.6,-0.83 31.22,-15.76 30.4,-33.36 -0.1,-1.72 -0.43,-3.36 -0.77,-5.01 m -38.64,-655.01 c 2.85,4.8 6.79,8.49 11.25,11.19 9.93,6 22.63,6.63 33.32,0.36 12.9,-7.57 18.46,-22.65 14.81,-36.43 -0.76,-2.77 -1.74,-5.52 -3.27,-8.11 -2.02,-3.44 -4.64,-6.29 -7.58,-8.68 -10.24,-8.32 -24.93,-9.97 -36.96,-2.87 -10.6,6.21 -16.2,17.5 -15.89,28.97 0.12,5.31 1.44,10.67 4.32,15.57 m 114.11,-42.72 c 8.54,14.5 27.26,19.35 41.76,10.81 14.52,-8.53 19.37,-27.23 10.83,-41.74 -8.55,-14.52 -27.23,-19.38 -41.77,-10.84 -14.53,8.53 -19.34,27.25 -10.82,41.77 m 105.72,-43.96 c 7.98,13.56 25.42,18.08 38.96,10.11 13.56,-7.98 18.1,-25.42 10.11,-38.97 -7.96,-13.54 -25.4,-18.06 -38.94,-10.09 -13.56,7.95 -18.08,25.41 -10.13,38.95 m 95.03,-47.4 c 7.4,12.58 23.61,16.77 36.18,9.38 12.58,-7.41 16.78,-23.59 9.37,-36.17 -7.39,-12.58 -23.59,-16.78 -36.17,-9.38 -12.58,7.4 -16.77,23.59 -9.38,36.17 m 81.96,-53.11 c 6.83,11.63 21.78,15.49 33.39,8.68 11.6,-6.84 15.46,-21.78 8.65,-33.37 -6.82,-11.62 -21.78,-15.49 -33.39,-8.68 -11.58,6.83 -15.49,21.77 -8.65,33.37 m 66.59,-61.01 c 6.27,10.64 19.96,14.19 30.56,7.94 10.65,-6.25 14.21,-19.96 7.94,-30.6 -6.24,-10.63 -19.92,-14.18 -30.57,-7.93 -10.63,6.26 -14.2,19.97 -7.93,30.59 m 48.84,-71.2 c 5.71,9.67 18.15,12.89 27.8,7.19 9.67,-5.67 12.89,-18.11 7.21,-27.78 -5.67,-9.66 -18.13,-12.89 -27.79,-7.21 -9.64,5.7 -12.89,18.14 -7.22,27.8 m 53.81,-77.11 c 8.7,-5.12 11.58,-16.3 6.5,-24.99 -5.12,-8.68 -16.33,-11.59 -25.03,-6.51 -8.7,5.13 -11.58,16.33 -6.48,25.03 5.12,8.69 16.34,11.58 25.01,6.47 m 9.36,-121.16 c -4.53,-7.73 -14.48,-10.31 -22.2,-5.75 -7.74,4.53 -10.31,14.48 -5.77,22.21 4.55,7.73 14.52,10.3 22.22,5.74 7.72,-4.53 10.28,-14.47 5.75,-22.2 m -21.85,-113.04 c -3.96,-6.77 -12.65,-9 -19.43,-5.03 -6.73,3.96 -8.99,12.65 -5.02,19.41 3.99,6.75 12.68,8.99 19.43,5.02 6.74,-3.97 8.99,-12.64 5.02,-19.4 m -614.08,639.37 c -9.68,-16.44 -30.89,-21.95 -47.34,-12.27 -16.46,9.7 -21.96,30.9 -12.26,47.35 9.66,16.46 30.88,21.95 47.31,12.27 2.04,-1.21 3.95,-2.6 5.66,-4.13 5.18,-4.67 8.68,-10.71 10.32,-17.24 2.16,-8.5 1.11,-17.81 -3.69,-25.98 m -77.48,625.36 c 0.85,18.48 16.52,32.76 35.03,31.9 18.45,-0.86 32.75,-16.53 31.89,-35.02 -0.85,-18.47 -16.54,-32.76 -35,-31.9 -18.49,0.85 -32.8,16.53 -31.92,35.02 m -42.86,-580.43 c -10.25,-17.41 -32.7,-23.24 -50.1,-12.98 -17.45,10.23 -23.26,32.7 -13,50.13 10.24,17.43 32.67,23.25 50.12,12.98 17.43,-10.24 23.25,-32.7 12.98,-50.13 m -73.05,550.96 c 0.91,19.36 17.31,34.34 36.7,33.44 19.36,-0.9 34.33,-17.32 33.45,-36.71 -0.89,-19.36 -17.34,-34.34 -36.72,-33.44 -19.34,0.9 -34.33,17.33 -33.43,36.71 m -12.53,1016.01 c 9.8,12.31 27.7,14.35 39.99,4.59 12.3,-9.78 14.35,-27.69 4.58,-39.99 -9.77,-12.32 -27.67,-14.37 -39.97,-4.6 -12.32,9.78 -14.37,27.7 -4.6,40 m -10.78,-133.66 c -10.46,-13.19 -29.68,-15.38 -42.84,-4.9 -13.2,10.47 -15.4,29.66 -4.92,42.85 10.47,13.18 29.66,15.38 42.83,4.9 13.2,-10.47 15.4,-29.66 4.93,-42.85 m -25.32,-1382.88 c -10.82,-18.39 -34.52,-24.56 -52.92,-13.71 -18.41,10.79 -24.55,34.51 -13.74,52.9 10.81,18.41 34.53,24.56 52.93,13.73 18.4,-10.82 24.54,-34.52 13.73,-52.92 m 4.62,469.01 c -0.93,-20.26 -18.11,-35.93 -38.38,-34.98 -20.24,0.94 -35.9,18.12 -34.99,38.4 0.95,20.24 18.15,35.9 38.39,34.96 20.27,-0.94 35.91,-18.12 34.98,-38.38 m -80.35,801.91 c -6.22,4.95 -10.03,11.76 -11.49,18.99 -1.86,9.09 0.04,18.89 6.26,26.72 11.15,14.08 31.67,16.42 45.71,5.25 l 1.6,-1.57 c 3.11,-2.84 5.59,-6.11 7.33,-9.73 5.3,-10.9 4.34,-24.3 -3.7,-34.42 -10.33,-13.02 -28.55,-15.85 -42.36,-7.39 -1.11,0.69 -2.26,1.31 -3.35,2.15 m -11.42,-107.31 c -11.92,-14.96 -33.67,-17.45 -48.61,-5.58 -14.97,11.88 -17.45,33.64 -5.56,48.58 11.85,14.97 33.62,17.45 48.57,5.57 14.97,-11.88 17.44,-33.64 5.6,-48.57 m -22.81,-625.97 c -4.62,-1.86 -11.7,-4.01 -20.88,-5.6 -9.22,-1.49 -20.53,-2.62 -33.53,-3.07 -13,-0.59 -27.68,-0.47 -43.65,-0.27 -30.87,0.48 -66.79,1.96 -105.16,2.34 -41.1,0.4 -84.99,-0.47 -128.66,-5.19 -21.12,-2.1 -42.07,-5.39 -62.54,-9.33 -10.14,-2.27 -20.3,-4.13 -30.14,-6.91 -4.91,-1.3 -9.8,-2.59 -14.67,-3.85 -4.78,-1.52 -9.54,-3.01 -14.27,-4.48 -18.89,-5.87 -36.55,-13.17 -53,-20.62 -8.13,-3.92 -15.87,-8.09 -23.44,-11.92 -7.27,-4.35 -14.29,-8.54 -21.04,-12.59 -6.47,-4.46 -12.65,-8.74 -18.54,-12.82 -5.87,-4.1 -10.92,-8.67 -15.94,-12.58 -2.46,-2 -4.84,-3.95 -7.16,-5.84 -2.17,-2.03 -4.25,-3.99 -6.27,-5.88 -3.18,-2.99 -6.11,-5.72 -8.84,-8.31 l -2.2,-2.05 c -6.37,-6.55 -11.07,-12 -14.43,-15.54 -3.31,-3.62 -5.08,-5.55 -5.08,-5.55 l -11.09,9.65 c 0,0 1.87,1.97 5.4,5.66 3.55,3.64 8.56,9.18 15.35,15.82 3.53,3.19 7.45,6.71 11.72,10.54 2.12,1.91 4.33,3.91 6.64,5.96 2.25,1.77 4.61,3.62 7.02,5.49 l 0.53,0.43 c 5.31,3.95 10.65,8.56 16.83,12.67 6.17,4.09 12.68,8.39 19.47,12.87 7.05,4.02 14.4,8.2 22.01,12.52 7.87,3.79 15.93,7.9 24.36,11.75 17.07,7.29 35.33,14.37 54.75,19.93 4.82,1.42 9.72,2.84 14.63,4.27 4.98,1.18 10.01,2.38 15.03,3.59 10.07,2.62 20.43,4.3 30.78,6.36 20.83,3.56 42.08,6.43 63.42,8.09 28.63,2.46 57.21,3.27 85.01,3.2 8,-0.01 15.98,-0.1 23.84,-0.25 46.26,-0.9 89.5,-3.79 125.74,-5.13 15.94,-0.54 30.59,-0.98 43.55,-0.68 12.96,0.17 24.26,1.05 33.46,2.35 9.21,1.39 16.27,3.36 20.95,5.1 4.54,2.05 6.97,3.13 6.97,3.13 0,0 -2.39,-1.13 -6.93,-3.26 m -40.31,-130.21 c -21.14,0.98 -37.49,18.92 -36.5,40.07 0.94,21.14 18.89,37.48 40.06,36.51 21.14,-0.98 37.49,-18.92 36.49,-40.06 -0.97,-21.15 -18.92,-37.5 -40.05,-36.52 m 29.55,-349.28 c -11.38,-19.38 -36.34,-25.85 -55.7,-14.44 -19.39,11.37 -25.86,36.34 -14.47,55.7 11.37,19.38 36.35,25.83 55.72,14.45 19.38,-11.39 25.86,-36.35 14.45,-55.71 m 6.62,-801.86 c 14.48,6.43 31.42,-0.08 37.85,-14.57 6.42,-14.48 -0.1,-31.43 -14.59,-37.84 -14.47,-6.41 -31.42,0.12 -37.82,14.59 -6.45,14.47 0.09,31.4 14.56,37.82 m 49.28,-74.74 c 13.65,6.06 29.66,-0.09 35.73,-13.75 6.07,-13.66 -0.11,-29.67 -13.78,-35.72 -13.65,-6.08 -29.63,0.1 -35.7,13.76 -6.08,13.66 0.09,29.64 13.75,35.71 m 43.85,-505.38 c 3.55,-8 -0.07,-17.33 -8.03,-20.84 -7.98,-3.55 -17.28,0.06 -20.83,8 -3.58,7.99 0.04,17.33 8,20.86 8.01,3.55 17.3,-0.06 20.86,-8.02 m -124.48,601.23 c -15.31,-6.77 -33.18,0.12 -39.97,15.42 -6.78,15.27 0.11,33.17 15.41,39.93 11.32,5.06 24.09,2.53 32.7,-5.31 2.97,-2.76 5.5,-6.12 7.26,-10.05 0.72,-1.65 1.21,-3.32 1.64,-4.99 1.55,-6.2 1.11,-12.58 -1.11,-18.3 -1.55,-3.98 -4.01,-7.57 -7.12,-10.62 -2.53,-2.43 -5.41,-4.58 -8.81,-6.08 m -59.64,75.52 c -16.13,-7.13 -34.94,0.12 -42.11,16.24 -7.13,16.07 0.13,34.94 16.23,42.06 16.09,7.14 34.94,-0.11 42.09,-16.22 7.14,-16.09 -0.13,-34.96 -16.21,-42.08 m -63.08,77.78 c -16.9,-7.51 -36.69,0.11 -44.2,17.01 -7.54,16.93 0.11,36.73 17.04,44.23 16.91,7.51 36.69,-0.14 44.2,-17.04 7.49,-16.91 -0.11,-36.72 -17.04,-44.2 m -64.84,80.28 c -17.73,-7.86 -38.47,0.14 -46.33,17.87 -7.87,17.73 0.14,38.46 17.85,46.33 17.72,7.87 38.49,-0.14 46.35,-17.86 7.86,-17.73 -0.17,-38.48 -17.87,-46.34 m -64.99,83.07 c -18.56,-8.22 -40.27,0.15 -48.49,18.68 -8.22,18.54 0.14,40.25 18.66,48.48 18.55,8.22 40.24,-0.15 48.49,-18.7 8.23,-18.52 -0.16,-40.24 -18.66,-48.46 m -63.62,86.14 c -19.34,-8.57 -41.99,0.16 -50.58,19.5 -8.59,19.36 0.16,42 19.5,50.59 19.35,8.59 41.99,-0.15 50.59,-19.49 8.58,-19.36 -0.15,-42.02 -19.51,-50.6 m -60.49,89.45 c -20.16,-8.93 -43.78,0.16 -52.73,20.33 -8.95,20.17 0.16,43.77 20.3,52.7 20.16,8.96 43.78,-0.15 52.73,-20.3 8.95,-20.16 -0.16,-43.78 -20.3,-52.73 m -110.68,114.18 c -9.31,20.98 0.16,45.54 21.13,54.84 20.96,9.31 45.52,-0.16 54.83,-21.14 9.32,-20.95 -0.16,-45.53 -21.14,-54.84 -20.95,-9.3 -45.51,0.18 -54.82,21.14 m -51.66,97.73 c -9.69,21.78 0.15,47.3 21.95,56.96 21.78,9.67 47.29,-0.18 56.95,-21.95 9.68,-21.78 -0.16,-47.3 -21.94,-56.98 -21.78,-9.65 -47.3,0.18 -56.96,21.97 m 76.85,388.4 c -24.69,1.14 -43.8,22.1 -42.65,46.81 1.13,24.68 22.1,43.78 46.8,42.64 24.71,-1.15 43.78,-22.11 42.62,-46.8 -1.11,-24.69 -22.07,-43.8 -46.77,-42.65 m 302.85,57.68 c 1.03,22.03 19.73,39.06 41.77,38.06 22.02,-1.04 39.06,-19.74 38.02,-41.76 -0.99,-22.04 -19.67,-39.09 -41.74,-38.05 -22.03,1.01 -39.07,19.71 -38.05,41.75 m 51.46,-242.88 c 20.36,-11.95 27.12,-38.17 15.17,-58.51 -11.97,-20.32 -38.15,-27.13 -58.52,-15.15 -20.33,11.94 -27.13,38.16 -15.16,58.49 11.96,20.35 38.13,27.13 58.51,15.17 m -168.54,229.9 c 1.05,22.91 20.54,40.63 43.46,39.58 22.9,-1.07 40.62,-20.52 39.58,-43.43 -1.08,-22.93 -20.53,-40.66 -43.45,-39.59 -22.93,1.07 -40.63,20.52 -39.59,43.44 m 56.05,-146.79 c 8.49,-4.99 14.66,-12.36 18.31,-20.75 5.52,-12.69 5.14,-27.72 -2.41,-40.56 -12.56,-21.3 -39.99,-28.42 -61.29,-15.89 -20.5,12.04 -27.81,37.85 -17.24,58.75 l 1.32,2.55 c 12.54,21.3 40,28.43 61.31,15.9 m -171.46,142.56 c 1.1,23.8 21.3,42.2 45.13,41.1 23.79,-1.1 42.19,-21.3 41.09,-45.1 -1.08,-23.83 -21.28,-42.24 -45.11,-41.13 -23.81,1.1 -42.21,21.3 -41.11,45.13 m 0.47,-160.12 c 2.18,-2.51 4.4,-5.08 6.72,-7.61 5.09,-6.06 9.99,-12.42 15.01,-18.92 l 4.3,-5.59 c 2.28,-3.35 4.45,-6.42 6.63,-9.53 4.11,-5.78 8.31,-11.78 12.18,-18.2 10.82,-16.66 21.88,-36.49 34.73,-62.25 12.74,-26.85 22.34,-49.02 30.15,-69.85 1.74,-4.49 3.43,-9.09 5.1,-13.68 l 1.98,-5.45 c 3.89,-10.53 7.65,-21.13 11.33,-31.83 l 1.93,-5.72 c 1.94,-5.64 3.88,-11.27 5.71,-16.95 10.07,-30.7 19.4,-61.7 28.43,-91.71 5.58,-18.53 11.06,-36.78 16.61,-54.51 7.75,-25.01 14.92,-46.79 21.88,-66.6 8.55,-23.97 15.74,-42.49 22.64,-58.34 4.35,-10.17 8,-18.17 11.51,-25.23 3.84,-8.32 7.89,-15.92 11.39,-22.3 3.55,-6.98 7.28,-13.08 10.86,-18.97 l 5.15,-8.52 8.25,-12.08 c 1.84,-2.71 3.53,-5.22 5.2,-7.44 l 5.39,-21.95 -13.03,15.97 c -1.85,2.38 -3.68,4.99 -5.71,7.83 l -13.95,20.71 c -2.1,3.29 -3.81,5.99 -5.52,8.81 -2.03,3.36 -4.06,6.83 -6.04,10.54 -3.83,6.72 -7.98,14.18 -12,22.49 -3.65,7 -7.53,15.13 -12.13,25.44 -6.78,14.81 -13.88,32.1 -22.35,54.39 l -1.65,4.27 c -7.46,20.12 -15.05,41.92 -23.21,66.7 -5.84,17.6 -11.64,35.7 -17.52,54.06 -9.55,29.84 -19.45,60.72 -30.03,91.12 l -1.21,3.42 c -8.38,24.26 -17.07,47.44 -25.79,68.91 -10.51,26.48 -22.56,51.39 -30.72,67.82 -12.95,24.83 -24.01,43.83 -34.7,59.74 -3.78,6.02 -7.88,11.62 -11.88,17.04 -2.25,3.09 -4.51,6.14 -6.64,9.22 l -4.45,5.54 c -4.83,6.01 -9.48,11.86 -14.24,17.31 -2.28,2.42 -4.57,4.99 -6.86,7.51 -3.96,4.42 -7.72,8.59 -11.65,12.31 -2.34,2.17 -4.58,4.35 -6.78,6.5 -3.77,3.66 -7.41,7.2 -11.11,10.31 l -16.73,14.05 -26.78,18.81 -21.02,12.98 12.08,20.86 34.76,-23.05 15.33,-11.56 17.32,-15.03 c 4.21,-3.66 8.23,-7.69 12.47,-11.98 l 6.13,-6.12 c 4.32,-4.25 8.3,-8.84 12.53,-13.69 m -191.44,-166.91 c -10.04,22.59 0.18,49.06 22.79,59.08 22.57,10.03 49.03,-0.17 59.08,-22.77 10.02,-22.6 -0.18,-49.06 -22.78,-59.09 -22.58,-10.02 -49.06,0.17 -59.09,22.78 m -20.87,153.79 c -16.25,11.15 -23.74,32.16 -16.92,51.65 3.22,9.21 9.16,16.64 16.58,21.85 3.51,2.44 7.35,4.38 11.39,5.74 9.13,3.09 19.28,3.3 29.08,-0.13 9.9,-3.45 17.76,-10.07 22.99,-18.28 7.06,-11.16 9.19,-25.32 4.48,-38.74 -8.16,-23.36 -33.72,-35.65 -57.05,-27.48 -3.84,1.34 -7.35,3.2 -10.55,5.39 m -6.83,-87.16 c -7.78,-22.28 -32.17,-34.01 -54.43,-26.22 -22.29,7.8 -34.04,32.18 -26.22,54.45 7.8,22.29 32.16,34.02 54.45,26.22 22.27,-7.79 34,-32.19 26.2,-54.45 m -56.13,-119.75 c -7.42,-21.21 -30.66,-32.39 -51.86,-24.97 -21.22,7.44 -32.4,30.65 -24.96,51.84 7.42,21.22 30.63,32.4 51.85,24.97 21.22,-7.41 32.39,-30.64 24.97,-51.84 m -41.19,-127.57 c -7.07,-20.17 -29.11,-30.78 -49.26,-23.73 -20.15,7.06 -30.76,29.1 -23.72,49.26 7.04,20.14 29.11,30.76 49.25,23.7 20.17,-7.04 30.76,-29.09 23.73,-49.23 m -29.56,-132.75 c -6.67,-19.11 -27.58,-29.15 -46.66,-22.46 -19.09,6.68 -29.14,27.56 -22.46,46.64 6.68,19.09 27.57,29.14 46.65,22.47 19.08,-6.67 29.14,-27.58 22.47,-46.65 m -21.24,-135.21 c -6.31,-18.03 -26.03,-27.53 -44.06,-21.22 -18.02,6.31 -27.52,26.04 -21.22,44.06 6.32,18.02 26.04,27.51 44.08,21.21 18.01,-6.29 27.5,-26.03 21.2,-44.05 m -16.24,-135.01 c -5.94,-16.94 -24.51,-25.89 -41.45,-19.97 -16.98,5.94 -25.92,24.52 -19.97,41.47 5.92,16.96 24.49,25.89 41.46,19.98 16.95,-5.95 25.9,-24.53 19.96,-41.48 m -14.56,-132.08 c -0.57,-1.58 -1.31,-3.03 -2.08,-4.45 -0.59,-1.1 -1.29,-2.11 -2,-3.12 -7.7,-10.76 -21.71,-15.71 -34.79,-11.14 -15.89,5.57 -24.28,22.97 -18.71,38.84 5.56,15.92 22.97,24.3 38.86,18.71 15.9,-5.55 24.28,-22.95 18.72,-38.84 m -16.22,-126.53 c -5.19,-14.83 -21.43,-22.65 -36.26,-17.44 l -0.99,0.45 c -1.9,0.75 -3.65,1.69 -5.29,2.77 -10.59,7.03 -15.56,20.49 -11.18,33.03 4.05,11.53 14.78,18.75 26.35,18.95 3.27,0.06 6.63,-0.34 9.91,-1.48 l 0.68,-0.32 c 14.38,-5.45 21.88,-21.35 16.78,-35.96 m -21.17,-118.24 c -4.81,-13.78 -19.89,-21.04 -33.66,-16.21 -13.76,4.82 -21.03,19.87 -16.21,33.65 4.83,13.78 19.9,21.03 33.67,16.21 13.78,-4.83 21.02,-19.88 16.2,-33.65 m -29.45,-107.33 c -4.45,-12.7 -18.34,-19.41 -31.06,-14.94 -12.7,4.43 -19.39,18.35 -14.97,31.06 4.47,12.7 18.37,19.39 31.08,14.94 12.71,-4.44 19.4,-18.34 14.95,-31.06 m -80.16,118.91 c -14.12,4.96 -21.54,20.4 -16.59,34.5 4.92,14.12 20.36,21.54 34.48,16.59 14.1,-4.91 21.53,-20.37 16.59,-34.48 -4.93,-14.11 -20.37,-21.52 -34.48,-16.61 m 15.51,-65.12 c -4.65,-13.26 -19.18,-20.24 -32.43,-15.6 -13.28,4.63 -20.27,19.16 -15.61,32.43 4.63,13.26 19.15,20.27 32.41,15.6 13.28,-4.64 20.27,-19.16 15.63,-32.43 m -26.4,-73.85 c -4.36,-12.45 -17.96,-18.97 -30.38,-14.63 -12.42,4.35 -18.99,17.97 -14.63,30.37 4.37,12.46 17.97,19 30.39,14.64 12.43,-4.34 18.97,-17.94 14.62,-30.38 m -5.97,-150.98 c -3.7,-10.57 -15.28,-16.17 -25.88,-12.44 -10.56,3.69 -16.15,15.28 -12.45,25.85 3.7,10.6 15.29,16.17 25.86,12.47 10.59,-3.71 16.17,-15.31 12.47,-25.88 m -57.82,72.41 c -11.59,4.05 -17.71,16.72 -13.64,28.33 4.07,11.6 16.74,17.68 28.33,13.63 11.59,-4.03 17.69,-16.74 13.64,-28.33 -4.06,-11.58 -16.74,-17.7 -28.33,-13.63 m -16.39,-130.77 c -3.34,-9.53 -13.75,-14.56 -23.28,-11.22 -9.52,3.34 -14.53,13.75 -11.2,23.26 3.34,9.53 13.76,14.56 23.26,11.22 9.54,-3.33 14.55,-13.75 11.22,-23.26 m -40.41,103.06 c 3.77,10.75 15.53,16.41 26.27,12.64 10.76,-3.76 16.41,-15.53 12.66,-26.28 -3.76,-10.75 -15.53,-16.4 -26.28,-12.65 -10.74,3.76 -16.42,15.53 -12.65,26.29 m 76.91,1084.76 c -2.25,-13.17 -3.85,-26.98 -4.92,-42.25 l -0.35,-7.26 c -0.24,-4.24 -0.44,-8.39 -0.54,-12.45 l 0.11,-18.48 c -0.04,-3.8 0.22,-7.4 0.47,-10.91 0.15,-2.05 0.29,-4.06 0.38,-6.04 0.11,-1.64 0.22,-3.42 0.31,-5.18 0.2,-3.39 0.38,-6.65 0.84,-9.76 0.48,-3.62 0.87,-7.01 1.22,-10.23 0.63,-5.41 1.17,-10.31 1.98,-14.57 l -5.31,-23.43 -4.47,21.52 c -0.97,4.4 -1.7,9.53 -2.51,15.21 -0.46,3.14 -0.92,6.45 -1.48,9.9 -0.6,3.34 -0.92,6.95 -1.22,10.68 l -0.47,5.04 c -0.14,2 -0.34,3.88 -0.52,5.81 -0.39,3.81 -0.78,7.71 -0.86,11.76 l -0.64,18.67 c -0.01,4.36 0.08,8.68 0.19,13.09 l 0.14,7.19 c 0.64,15.79 1.88,30.08 3.83,43.8 1.9,14.26 4.78,29.33 8.8,46.04 1.21,5.02 2.61,10.04 4.04,15.07 0.77,2.69 1.54,5.4 2.28,8.12 l 2.41,7.42 c 1.72,5.29 3.43,10.6 5.35,15.82 6.83,18.5 12.59,32.32 18.66,44.79 5.94,12.75 12.91,25.96 21.9,41.49 8.32,14.04 16.07,26.17 23.72,37.06 7.62,10.98 15.56,21.61 23.57,31.55 15.95,19.92 30.2,35 39.37,44.13 9.98,10.02 16.41,15.46 16.68,15.69 5.13,4.33 12.94,3.53 17.05,-1.36 4.26,-5.06 3.63,-12.66 -1.44,-16.93 -0.35,-0.3 -6.23,-4.97 -15.98,-14.2 -9.03,-8.48 -23.08,-22.5 -38.9,-41.17 -7.95,-9.3 -15.88,-19.3 -23.6,-29.75 -7.64,-10.25 -15.44,-21.72 -23.88,-35.05 -9.09,-14.7 -16.16,-27.24 -22.3,-39.42 -6.16,-11.82 -12.1,-24.98 -19.26,-42.74 -1.96,-4.93 -3.73,-9.93 -5.52,-14.95 l -2.58,-7.21 c -0.74,-2.48 -1.6,-5.19 -2.45,-7.89 -1.5,-4.76 -3.01,-9.51 -4.28,-14.3 -4.36,-16.07 -7.58,-30.57 -9.82,-44.32 m -31.37,274.3 c -19.99,-9.36 -43.76,-0.73 -53.1,19.25 -9.33,20 -0.71,43.77 19.27,53.11 19.97,9.35 43.76,0.71 53.1,-19.27 9.35,-19.98 0.72,-43.76 -19.27,-53.09 m 94.73,56.87 c -20.79,-9.73 -45.52,-0.76 -55.24,20.04 -9.71,20.79 -0.74,45.54 20.05,55.24 20.78,9.73 45.52,0.74 55.24,-20.05 9.72,-20.78 0.74,-45.52 -20.05,-55.23 m -382.73,-83.64 c 45.52,136.95 381.81,310.49 527.39,285.93 -130.6,-18.26 -424.68,-101.53 -527.39,-285.93 m 196.75,-34.73 c -19.19,-8.97 -42,-0.69 -50.97,18.49 -8.96,19.18 -0.67,42 18.5,50.96 19.18,8.98 42,0.69 50.97,-18.5 8.95,-19.17 0.67,-42 -18.5,-50.95 m -88.06,-64.48 c -18.38,-8.59 -40.23,-0.65 -48.82,17.72 -8.59,18.36 -0.66,40.23 17.72,48.82 18.37,8.61 40.23,0.66 48.82,-17.71 8.58,-18.39 0.65,-40.24 -17.72,-48.83 m -85.11,-65.86 c -17.59,-8.22 -38.48,-0.62 -46.69,16.94 -8.21,17.57 -0.62,38.46 16.94,46.67 17.57,8.23 38.47,0.63 46.69,-16.93 8.2,-17.57 0.62,-38.47 -16.94,-46.68 m -71.56,790.45 c 10.25,17.41 32.69,23.24 50.13,12.99 17.44,-10.24 23.24,-32.71 12.99,-50.13 -10.24,-17.43 -32.7,-23.24 -50.12,-12.99 -17.43,10.24 -23.26,32.7 -13,50.13 m -10.9,-856.09 c -16.76,-7.84 -36.7,-0.59 -44.53,16.17 -7.84,16.76 -0.6,36.7 16.16,44.53 16.76,7.85 36.7,0.59 44.53,-16.16 7.85,-16.76 0.6,-36.71 -16.16,-44.54 m -52.86,856.88 c -9.68,-16.47 -30.87,-21.97 -47.34,-12.28 -16.45,9.67 -21.95,30.88 -12.27,47.34 9.68,16.45 30.87,21.95 47.33,12.28 16.47,-9.69 21.96,-30.89 12.28,-47.34 m -27.18,-920.67 c -15.95,-7.46 -34.93,-0.58 -42.4,15.38 -7.46,15.96 -0.57,34.93 15.39,42.4 15.97,7.47 34.94,0.56 42.4,-15.39 7.46,-15.96 0.59,-34.95 -15.39,-42.39 m -77.9,-60.34 c -15.15,-7.09 -33.18,-0.55 -40.26,14.59 -7.07,15.17 -0.53,33.19 14.61,40.28 15.16,7.07 33.19,0.54 40.27,-14.62 7.07,-15.16 0.54,-33.16 -14.62,-40.25 m 293.97,938.99 c 10.81,18.39 34.52,24.55 52.92,13.73 18.41,-10.83 24.54,-34.55 13.72,-52.93 -10.81,-18.39 -34.52,-24.54 -52.9,-13.72 -18.42,10.81 -24.56,34.51 -13.74,52.92 m 124.72,-49 c 11.39,19.36 36.34,25.83 55.73,14.44 19.38,-11.39 25.83,-36.34 14.42,-55.71 -11.39,-19.35 -36.33,-25.84 -55.69,-14.45 -19.38,11.4 -25.86,36.36 -14.46,55.72 m 122.16,-59.18 c 11.96,20.34 38.16,27.13 58.51,15.17 20.34,-11.96 27.14,-38.17 15.17,-58.51 -11.95,-20.33 -38.16,-27.12 -58.5,-15.17 -20.34,11.96 -27.14,38.16 -15.18,58.51 m 117.42,-71.77 c 12.53,21.32 39.97,28.43 61.3,15.9 21.33,-12.52 28.42,-39.99 15.9,-61.3 -12.53,-21.31 -40,-28.43 -61.3,-15.89 -21.32,12.53 -28.42,39.98 -15.9,61.29 m 44.39,961.5 c 0,15.72 12.75,28.45 28.46,28.45 15.71,0 28.46,-12.73 28.46,-28.45 0,-15.72 -12.75,-28.45 -28.46,-28.45 -15.71,0 -28.46,12.73 -28.46,28.45 m -20.67,115.8 c 0,14.61 11.84,26.42 26.41,26.42 14.6,0 26.43,-11.81 26.43,-26.42 0,-14.58 -11.83,-26.42 -26.43,-26.42 -14.57,0 -26.41,11.84 -26.41,26.42 m -9.04,109.8 c 0,13.46 10.92,24.37 24.38,24.37 13.46,0 24.39,-10.91 24.39,-24.37 0,-13.46 -10.93,-24.38 -24.39,-24.38 -13.46,0 -24.38,10.92 -24.38,24.38 m 29.08,125.16 c 12.33,0 22.35,-10 22.35,-22.33 0,-12.34 -10.02,-22.34 -22.35,-22.34 -12.36,0 -22.35,10 -22.35,22.34 0,12.33 9.99,22.33 22.35,22.33 m 24.58,92.9 c 11.21,0 20.31,-9.09 20.31,-20.3 0,-11.21 -9.1,-20.31 -20.31,-20.31 -11.2,0 -20.31,9.1 -20.31,20.31 0,11.21 9.11,20.3 20.31,20.3 m 65.22,-564.52 c 0,-16.84 -13.65,-30.5 -30.49,-30.5 -16.85,0 -30.5,13.66 -30.5,30.5 0,16.84 13.65,30.49 30.5,30.49 16.84,0 30.49,-13.65 30.49,-30.49 m 0.36,293.23 c 14.95,0 27.08,-12.11 27.08,-27.07 0,-14.94 -12.13,-27.06 -27.08,-27.06 -14.94,0 -27.07,12.12 -27.07,27.06 0,14.96 12.13,27.07 27.07,27.07 m 48.9,-115.51 c 0,-15.84 -12.85,-28.67 -28.69,-28.67 -15.84,0 -28.67,12.83 -28.67,28.67 0,15.84 12.83,28.67 28.67,28.67 15.84,0 28.69,-12.83 28.69,-28.67 m 28.03,-92.6 c 0,-16.72 -13.55,-30.28 -30.29,-30.28 -16.72,0 -30.27,13.56 -30.27,30.28 0,16.74 13.55,30.29 30.27,30.29 16.74,0 30.29,-13.55 30.29,-30.29 m 32.42,-96.31 c 0,-3.3 -0.64,-6.4 -1.56,-9.4 -1.24,-3.98 -3.23,-7.62 -5.81,-10.77 -5.86,-7.11 -14.6,-11.72 -24.52,-11.72 -17.61,0 -31.9,14.28 -31.9,31.89 l 0.26,2.41 c 0.18,2.58 0.67,5.04 1.45,7.41 4.16,12.78 16.03,22.08 30.19,22.08 17.61,0 31.89,-14.28 31.89,-31.9 m 34.93,-99.6 c 0,-18.49 -15.01,-33.5 -33.51,-33.5 -18.49,0 -33.5,15.01 -33.5,33.5 0,18.52 15.01,33.51 33.5,33.51 18.5,0 33.51,-14.99 33.51,-33.51 m -55.75,-576.96 c -22.47,0 -40.7,18.22 -40.7,40.69 0,22.47 18.23,40.69 40.7,40.69 22.49,0 40.7,-18.22 40.7,-40.69 0,-22.47 -18.21,-40.69 -40.7,-40.69 m -11.35,-133.35 c -23.59,0 -42.74,19.14 -42.74,42.72 0,2.19 0.22,4.31 0.53,6.4 3.1,20.56 20.79,36.33 42.21,36.33 23.62,0 42.74,-19.11 42.74,-42.73 0,-16.27 -9.13,-30.42 -22.51,-37.62 -6.02,-3.26 -12.89,-5.1 -20.23,-5.1 m -77.49,-86.99 c 0,24.72 20.05,44.76 44.77,44.76 24.18,0 43.85,-19.19 44.69,-43.17 l 0.09,-1.59 c 0,-23.42 -17.98,-42.62 -40.89,-44.59 -1.29,-0.11 -2.56,-0.19 -3.89,-0.19 -24.72,0 -44.77,20.05 -44.77,44.78 m 3.06,750.57 c -17.97,0 -32.55,14.57 -32.55,32.54 0,17.97 14.58,32.53 32.55,32.53 17.97,0 32.54,-14.56 32.54,-32.53 0,-17.97 -14.57,-32.54 -32.54,-32.54 m 32.87,-130.18 c -19.1,0 -34.57,15.47 -34.57,34.57 0,19.1 15.47,34.57 34.57,34.57 19.1,0 34.58,-15.47 34.58,-34.57 0,-19.1 -15.48,-34.57 -34.58,-34.57 m 85.65,-227.41 c 0,-21.35 -17.28,-38.65 -38.63,-38.65 -21.35,0 -38.67,17.3 -38.67,38.65 0,21.35 17.32,38.64 38.67,38.64 21.35,0 38.63,-17.29 38.63,-38.64 m -57.64,95 c -20.22,0 -36.62,16.41 -36.62,36.62 0,20.22 16.4,36.61 36.62,36.61 20.22,0 36.61,-16.39 36.61,-36.61 0,-20.21 -16.39,-36.62 -36.61,-36.62 m -55.33,-647.62 c -14.37,-6.71 -30.45,-5.11 -42.94,2.8 -6.97,4.41 -12.84,10.77 -16.59,18.8 -10.46,22.41 -0.8,49.06 21.61,59.53 15.7,7.35 33.46,4.76 46.31,-5.13 5.48,-4.23 10.07,-9.77 13.21,-16.48 10.47,-22.38 0.81,-49.04 -21.6,-59.52 m -37.89,-151.21 c -23.32,8.18 -35.64,33.72 -27.47,57.06 8.16,23.33 33.72,35.64 57.05,27.47 23.35,-8.16 35.65,-33.73 27.49,-57.05 -8.18,-23.36 -33.73,-35.64 -57.07,-27.48 m -64.6,108.4 c -21.59,-10.1 -47.28,-0.77 -57.36,20.82 -10.1,21.59 -0.77,47.29 20.82,57.38 21.59,10.1 47.29,0.77 57.38,-20.82 10.09,-21.6 0.77,-47.3 -20.84,-57.38 m 19.63,-207.67 c -22.5,7.89 -34.35,32.51 -26.48,55.01 7.87,22.5 32.49,34.36 55,26.48 22.5,-7.87 34.35,-32.5 26.48,-55.01 -7.88,-22.5 -32.5,-34.35 -55,-26.48 m -34.12,-102.74 c -21.67,7.58 -33.08,31.3 -25.49,52.96 7.58,21.66 31.27,33.08 52.95,25.5 21.65,-7.59 33.07,-31.29 25.51,-52.96 -7.6,-21.67 -31.32,-33.07 -52.97,-25.5 m -24.93,-105.18 c -20.81,7.29 -31.81,30.07 -24.51,50.9 7.29,20.82 30.07,31.79 50.89,24.51 20.84,-7.29 31.8,-30.1 24.51,-50.91 -7.29,-20.82 -30.07,-31.8 -50.89,-24.5 m -17.41,-106.62 c -19.97,7 -30.51,28.88 -23.51,48.86 6.99,19.99 28.86,30.51 48.83,23.51 19.99,-6.98 30.52,-28.88 23.53,-48.85 -6.99,-19.99 -28.86,-30.5 -48.85,-23.52 m -11.52,-106.97 c -19.14,6.69 -29.22,27.63 -22.53,46.78 6.69,19.15 27.65,29.24 46.79,22.54 19.15,-6.71 29.23,-27.66 22.54,-46.8 -6.71,-19.14 -27.66,-29.23 -46.8,-22.52 m -7.32,-106.35 c -18.31,6.4 -27.94,26.44 -21.54,44.73 6.39,18.33 26.43,27.97 44.73,21.56 18.32,-6.39 27.94,-26.44 21.55,-44.75 -6.41,-18.31 -26.44,-27.96 -44.74,-21.54 m -4.77,-104.66 c -17.46,6.11 -26.67,25.24 -20.56,42.71 6.11,17.45 25.23,26.66 42.68,20.53 17.48,-6.09 26.66,-25.22 20.56,-42.68 -6.11,-17.48 -25.22,-26.67 -42.68,-20.56 m -3.89,-101.95 c -16.62,5.84 -25.4,24.05 -19.56,40.65 5.79,16.65 24.02,25.39 40.64,19.58 16.63,-5.83 25.37,-24.03 19.56,-40.64 -5.81,-16.64 -24.02,-25.39 -40.64,-19.59 m 24.79,-174.01 c -5.22,-14.94 -21.58,-22.82 -36.52,-17.57 -14.94,5.2 -22.83,21.59 -17.6,36.53 5.24,14.96 21.58,22.82 36.54,17.59 14.95,-5.23 22.81,-21.6 17.58,-36.55 m -29.43,75.84 c -15.8,5.52 -24.11,22.79 -18.59,38.57 5.51,15.8 22.8,24.12 38.6,18.56 15.78,-5.5 24.09,-22.78 18.58,-38.55 -5.54,-15.8 -22.82,-24.12 -38.59,-18.58 m 363.02,1937.63 c 0,-19.39 -15.71,-35.12 -35.11,-35.12 -19.39,0 -35.11,15.73 -35.11,35.12 0,19.38 15.72,35.1 35.11,35.1 19.4,0 35.11,-15.72 35.11,-35.1 m 34.36,-104.87 c 0,-20.28 -16.45,-36.71 -36.73,-36.71 -20.27,0 -36.71,16.43 -36.71,36.71 0,20.29 16.44,36.73 36.71,36.73 20.28,0 36.73,-16.44 36.73,-36.73 m 31.29,-106.83 c 0,-21.17 -17.17,-38.34 -38.33,-38.34 -21.17,0 -38.35,17.17 -38.35,38.34 0,21.17 17.18,38.34 38.35,38.34 21.16,0 38.33,-17.17 38.33,-38.34 m 26.37,-108.39 c 0,-22.04 -17.87,-39.92 -39.95,-39.92 -22.05,0 -39.94,17.88 -39.94,39.92 0,22.09 17.89,39.96 39.94,39.96 22.08,0 39.95,-17.87 39.95,-39.96 m 19.57,-109.46 c 0,-22.95 -18.61,-41.55 -41.55,-41.55 -22.95,0 -41.56,18.6 -41.56,41.55 0,22.95 18.61,41.55 41.56,41.55 22.94,0 41.55,-18.6 41.55,-41.55 m -32.24,-153.33 c -23.82,0 -43.17,19.33 -43.17,43.16 0,23.85 19.35,43.17 43.17,43.17 23.83,0 43.17,-19.32 43.17,-43.17 0,-23.83 -19.34,-43.16 -43.17,-43.16 m 43.58,-67.23 0,-0.09 c -0.04,-24.69 -20.08,-44.67 -44.76,-44.67 -9.7,0 -18.64,3.1 -25.97,8.33 -11.38,8.12 -18.81,21.39 -18.81,36.43 0,24.73 20.05,44.78 44.78,44.78 24.73,0 44.76,-20.05 44.76,-44.78 m 40.64,57.84 c 15.34,19.36 43.55,22.58 62.91,7.19 19.35,-15.36 22.59,-43.55 7.21,-62.9 -15.39,-19.37 -43.57,-22.59 -62.93,-7.2 -19.35,15.37 -22.59,43.54 -7.19,62.91 m 97.91,99.8 c 14.71,18.5 41.57,21.56 60.08,6.9 18.47,-14.68 21.54,-41.57 6.86,-60.05 -14.66,-18.49 -41.58,-21.57 -60.03,-6.88 -18.49,14.67 -21.58,41.55 -6.91,60.03 m 86.68,107.13 c 13.98,17.6 39.58,20.52 57.19,6.56 17.56,-13.98 20.51,-39.59 6.54,-57.19 -13.95,-17.61 -39.59,-20.53 -57.17,-6.55 -17.61,13.97 -20.56,39.58 -6.56,57.18 m 77.23,111.79 c 13.27,16.72 37.6,19.49 54.31,6.22 16.71,-13.28 19.51,-37.61 6.24,-54.32 -13.29,-16.72 -37.62,-19.5 -54.34,-6.23 -16.7,13.28 -19.49,37.62 -6.21,54.33 m 69.73,113.81 c 12.56,15.84 35.6,18.48 51.45,5.9 15.82,-12.59 18.46,-35.62 5.88,-51.45 -12.56,-15.85 -35.62,-18.48 -51.44,-5.9 -15.85,12.57 -18.48,35.62 -5.89,51.45 m 302.02,507.8 c 9.06,11.43 25.7,13.32 37.13,4.24 11.42,-9.07 13.32,-25.69 4.23,-37.12 -9.06,-11.43 -25.67,-13.33 -37.11,-4.26 -11.42,9.08 -13.31,25.71 -4.25,37.14 m -95.89,-2846.84 c 8.79,3.89 19.09,-0.07 22.97,-8.86 3.91,-8.79 -0.06,-19.06 -8.84,-22.97 -8.79,-3.9 -19.07,0.09 -22.97,8.86 -3.9,8.8 0.07,19.05 8.84,22.97 m -93.15,-166.65 c -7.16,-3.17 -15.55,0.08 -18.71,7.23 -3.19,7.16 0.05,15.52 7.2,18.7 7.19,3.17 15.56,-0.04 18.73,-7.21 3.18,-7.17 -0.07,-15.57 -7.22,-18.72 m -1140.54,243.86 c -3.47,-9.89 -14.31,-15.13 -24.23,-11.65 -9.9,3.46 -15.12,14.33 -11.66,24.23 3.48,9.91 14.32,15.11 24.24,11.67 9.9,-3.47 15.14,-14.34 11.65,-24.25 m -35.7,-82.1 c -2.97,-8.45 -12.2,-12.91 -20.67,-9.96 -8.45,2.96 -12.91,12.21 -9.95,20.66 2.95,8.46 12.21,12.93 20.67,9.97 8.46,-2.95 12.92,-12.21 9.95,-20.67 m -36.94,50.12 c -3.17,-9.1 -13.1,-13.84 -22.19,-10.67 -9.06,3.18 -13.84,13.09 -10.65,22.18 3.17,9.06 13.1,13.85 22.18,10.65 9.06,-3.17 13.83,-13.08 10.66,-22.16 m -83.72,-62.45 c -2.57,-7.4 -10.68,-11.29 -18.07,-8.7 -7.39,2.57 -11.29,10.69 -8.69,18.06 2.58,7.38 10.66,11.31 18.07,8.72 7.39,-2.6 11.28,-10.68 8.69,-18.08 m -34.45,53.94 c 2.89,8.23 11.89,12.58 20.12,9.7 8.25,-2.86 12.57,-11.9 9.69,-20.13 -2.88,-8.25 -11.89,-12.58 -20.11,-9.7 -8.25,2.86 -12.58,11.89 -9.7,20.13 m -75.92,-15.32 c -2.6,-7.4 -10.68,-11.28 -18.07,-8.67 -7.4,2.56 -11.3,10.67 -8.7,18.04 2.58,7.39 10.68,11.29 18.08,8.72 7.38,-2.58 11.27,-10.67 8.69,-18.09 m -248.90998,1035.63 c -14.35,-6.72 -31.41,-0.51 -38.12,13.83 -6.69,14.36 -0.49,31.42 13.83,38.13 14.36,6.7 31.43,0.49 38.13,-13.84 6.71998,-14.35 0.51,-31.42 -13.84,-38.12 m -74.41,-48.6 c -13.54,-6.34 -29.66,-0.49 -35.98,13.06 -6.33,13.54 -0.48,29.64 13.06,35.97 13.55,6.33 29.65,0.48 35.97,-13.05 6.35,-13.54 0.49,-29.65 -13.05,-35.98 m -73.08,-40.31 c -12.74,-5.94 -27.89,-0.45 -33.84,12.27 -5.95,12.75 -0.46,27.91 12.28,33.84 12.74,5.97 27.88,0.47 33.84,-12.27 5.96,-12.74 0.46,-27.89 -12.28,-33.84 m -72,-30.4 c -11.93,-5.58 -26.12,-0.41 -31.7,11.49 -5.58,11.93 -0.41,26.14 11.51,31.71 11.93,5.58 26.12,0.43 31.69,-11.49 5.59,-11.94 0.43,-26.13 -11.5,-31.71 m -71.18,-18.91 c -11.13,-5.21 -24.37,-0.39 -29.56,10.72 -5.22,11.14 -0.4,24.39 10.73,29.58 11.11,5.2 24.35,0.38 29.55,-10.73 5.21,-11.13 0.4,-24.36 -10.72,-29.57 m -70.66,-5.74 c -10.32,-4.84 -22.59,-0.38 -27.41,9.94 -4.83,10.31 -0.37,22.6 9.96,27.42 10.31,4.81 22.59,0.36 27.41,-9.95 4.82,-10.33 0.36,-22.6 -9.96,-27.41 m -70.36,8.96 c -9.52,-4.44 -20.84,-0.34 -25.29,9.16 -4.44,9.53 -0.34,20.85 9.17,25.3 9.53,4.44 20.84,0.33 25.29,-9.16 4.45,-9.53 0.34,-20.85 -9.17,-25.3 m -70.36,25.32 c -8.71,-4.05 -19.08,-0.31 -23.14,8.39 -4.08,8.72 -0.3,19.09 8.4,23.15 8.7,4.07 19.06,0.3 23.13,-8.39 4.08,-8.71 0.31,-19.07 -8.39,-23.15 m -70.61,43.3 c -7.91,-3.71 -17.32,-0.29 -21.01,7.62 -3.69,7.9 -0.28,17.31 7.62,20.99 7.91,3.7 17.31,0.28 21,-7.61 3.7,-7.91 0.3,-17.31 -7.61,-21 m -71.15,62.86 c -7.1,-3.32 -15.54,-0.26 -18.85,6.83 -3.32,7.11 -0.25,15.56 6.85,18.86 7.1,3.32 15.54,0.25 18.85,-6.83 3.32,-7.1 0.26,-15.54 -6.85,-18.86 m 701.96998,1074.77 c -9.11,-15.49 -29.06,-20.67 -44.53998,-11.56 -15.5,9.11 -20.66,29.06 -11.56,44.55 9.11,15.48 29.05998,20.65 44.55998,11.54 15.48,-9.1 20.64,-29.05 11.54,-44.53 m -116.85998,34.37 c -8.54,-14.52 -27.24,-19.37 -41.74,-10.83 -14.53,8.53 -19.38,27.23 -10.84,41.76 8.54,14.51 27.22,19.36 41.76,10.82 14.51,-8.54 19.36,-27.25 10.82,-41.75 m -108.6,36.2 c -7.97,-13.55 -25.42,-18.07 -38.95,-10.1 -13.56,7.97 -18.08,25.41 -10.13,38.96 7.99,13.56 25.42,18.08 38.97,10.1 13.56,-7.97 18.08,-25.4 10.11,-38.96 m -98.17,40.44 c -7.39,-12.57 -23.59,-16.77 -36.15,-9.38 -12.58,7.41 -16.8,23.6 -9.39,36.17 7.39,12.57 23.6,16.79 36.18,9.38 12.58,-7.4 16.76,-23.6 9.36,-36.17 m -85.55,47.09 c -6.83,-11.63 -21.77,-15.5 -33.39,-8.66 -11.6,6.81 -15.48,21.75 -8.65,33.36 6.83,11.62 21.77,15.48 33.38,8.65 11.6,-6.82 15.47,-21.76 8.66,-33.35 m -70.8,56.09 c -6.26,-10.62 -19.96,-14.18 -30.61,-7.93 -10.62,6.26 -14.17,19.95 -7.92,30.58 6.26,10.64 19.95,14.19 30.59,7.94 10.64,-6.25 14.18,-19.95 7.94,-30.59 m -53.88,67.57 c -5.68,-9.67 -18.14,-12.92 -27.79,-7.23 -9.68,5.7 -12.91,18.14 -7.22,27.8 5.69,9.66 18.14,12.89 27.8,7.2 9.66,-5.68 12.88,-18.12 7.21,-27.77 m -59.79,74.89 c -8.7,5.12 -11.6,16.31 -6.49,25 5.12,8.71 16.32,11.59 25,6.48 8.7,-5.12 11.6,-16.31 6.5,-24.99 -5.11,-8.71 -16.31,-11.61 -25.01,-6.49 m -16.49,120.56 c 4.55,7.73 14.49,10.31 22.22,5.76 7.72,-4.54 10.3,-14.49 5.76,-22.2 -4.53,-7.74 -14.48,-10.3 -22.2,-5.76 -7.74,4.56 -10.32,14.49 -5.78,22.2 m 1403.21998,755.06 c 10.09,0 18.27,-8.17 18.27,-18.26 0,-10.1 -8.18,-18.28 -18.27,-18.28 -10.09,0 -18.27,8.18 -18.27,18.28 0,10.09 8.18,18.26 18.27,18.26 m 76.75,74.22 c 8.96,0 16.21,-7.26 16.21,-16.23 0,-8.95 -7.25,-16.22 -16.21,-16.22 -8.96,0 -16.23,7.27 -16.23,16.22 0,8.97 7.27,16.23 16.23,16.23 m 53.93,-20.09 c 9.59,0 17.39,-7.78 17.39,-17.38 0,-9.62 -7.8,-17.43 -17.39,-17.43 -9.63,0 -17.42,7.81 -17.42,17.43 0,9.6 7.79,17.38 17.42,17.38 m 55.07,83.55 c 7.85,0 14.18,-6.34 14.18,-14.18 0,-7.84 -6.33,-14.18 -14.18,-14.18 -7.82,0 -14.19,6.34 -14.19,14.18 0,7.84 6.37,14.18 14.19,14.18 m 36.17,-53.75 c 0,-8.72 -7.06,-15.8 -15.79,-15.8 -8.73,0 -15.81,7.08 -15.81,15.8 0,8.72 7.08,15.79 15.81,15.79 8.73,0 15.79,-7.07 15.79,-15.79 m 80.78,53.76 c 7.83,0 14.19,-6.35 14.19,-14.19 0,-7.83 -6.36,-14.18 -14.19,-14.18 -7.83,0 -14.18,6.35 -14.18,14.18 0,7.84 6.35,14.19 14.18,14.19 m 825.6,-525.92 c 7.69,9.67 21.73,11.26 31.4,3.6 9.68,-7.67 11.27,-21.72 3.6,-31.39 -7.67,-9.67 -21.73,-11.28 -31.39,-3.6 -9.67,7.67 -11.27,21.74 -3.61,31.39 m 77.66,35.61 c 6.95,8.77 19.72,10.24 28.5,3.27 8.77,-6.97 10.24,-19.74 3.28,-28.53 -6.97,-8.78 -19.75,-10.24 -28.53,-3.27 -8.8,6.98 -10.24,19.76 -3.25,28.53 m 87.09,14.02 c 6.3,7.9 17.74,9.22 25.66,2.94 7.88,-6.27 9.22,-17.76 2.93,-25.66 -6.27,-7.89 -17.74,-9.22 -25.66,-2.94 -7.88,6.28 -9.19,17.77 -2.93,25.66 m 98.51,-10.2 c 5.57,7.01 15.76,8.18 22.77,2.61 7.03,-5.55 8.2,-15.76 2.62,-22.79 -5.55,-7.01 -15.76,-8.19 -22.78,-2.61 -7.02,5.57 -8.17,15.79 -2.61,22.79 m 111.76,-37.03 c 4.87,6.13 13.79,7.15 19.9,2.27 6.16,-4.85 7.17,-13.77 2.31,-19.92 -4.87,-6.13 -13.77,-7.15 -19.93,-2.29 -6.15,4.88 -7.15,13.81 -2.28,19.94 m 1001.4,-1598.43 c -3.18,-3.96 -7.37,-10.26 -13.79,-17.71 -3.18,-3.73 -6.75,-7.88 -10.64,-12.45 -4.07,-4.44 -8.75,-9.05 -13.62,-14.12 -4.93,-5.05 -10.84,-9.82 -16.76,-15.23 -3.07,-2.57 -6.43,-4.96 -9.79,-7.55 -3.37,-2.58 -6.8,-5.25 -10.66,-7.49 -14.67,-10.01 -32.49,-18.62 -52.52,-23.41 -20,-4.95 -42.36,-4.95 -64.59,1.36 -11.21,2.73 -22.15,7.9 -33.06,13.5 -10.74,6.23 -21.4,13.25 -31.48,21.9 -20.26,17.01 -38.94,38.41 -55.74,62.85 -33.41,48.98 -59.58,110.1 -78.14,175.88 -2.4,8.6 -4.79,17.25 -7.21,25.96 -2.63,9.29 -5.31,18.63 -8.02,28.03 -6.13,18.69 -12.37,37.7 -20.4,56.61 -15.61,37.87 -35.82,76.17 -63.44,112.06 l -5.12,6.79 -5.65,6.5 -11.38,13 c -7.9,8.44 -16.41,16.61 -25.06,24.63 -9.19,7.47 -17.99,15.7 -28.02,22.36 l -14.83,10.43 -15.62,9.32 c -42.09,24.94 -89.63,39.63 -136.65,48.02 -47.23,8.13 -94.16,9.26 -139.91,7.42 -45.78,-1.95 -90.48,-7.27 -134.17,-14.11 -87.39,-13.79 -171.22,-33.05 -252.3,-51.5 -6.45,-1.47 -12.78,-2.9 -19.19,-4.38 -1.62,1.51 -3.2,2.99 -4.82,4.52 -9.13,9.08 -17.97,19.06 -26.6,29.68 -8.27,10.91 -16.91,22.02 -24.63,34.23 -15.99,24.02 -30.98,50.38 -44.73,78.24 -13.77,27.87 -26.01,57.33 -36.87,87.42 -21.71,60.21 -38.98,122.44 -55.22,180.9 -15.92,58.57 -30.63,113.55 -45.11,160.24 -4.58,14.8 -9.13,28.66 -13.67,41.66 31.83,71.12 63.79,141.98 99.2,208.66 37.45,70.3 79.35,136.24 130.09,184.83 25.53,23.75 52.86,43.69 82.87,56.11 l 11.26,4.75 11.56,3.73 c 7.65,2.92 15.77,4.09 23.66,6.26 8.06,1.43 16.15,2.82 24.41,3.78 l 12.42,0.94 6.24,0.49 6.33,-0.02 c 33.64,0.53 68.22,-4.68 102,-13.43 16.96,-4.16 33.6,-9.83 50.11,-15.4 8.21,-3.14 16.34,-6.24 24.44,-9.35 8.66,-3.39 17.22,-6.76 25.75,-10.12 35.56,-13.78 70.76,-24.85 105.48,-32.96 34.76,-8.09 69.12,-13.31 102.57,-14.81 33.4,-1.4 65.93,0.92 96.23,7.98 15.15,3.36 29.61,8.49 43.24,14.33 13.45,6.47 26.28,13.37 37.28,22.31 11.33,8.36 20.67,18.53 28.92,28.62 3.81,5.33 7.44,10.6 10.7,15.93 2.82,5.57 6.02,10.81 8.27,16.32 9.45,21.85 13.46,43.19 14.39,62.15 0.53,4.73 0.45,9.34 0.41,13.81 -0.05,4.47 0.07,8.8 -0.14,12.97 -0.79,8.35 -1.06,16.16 -2.2,23.33 -1.14,7.16 -2.02,13.78 -3.17,19.77 -1.33,5.96 -2.52,11.38 -3.6,16.22 -2.12,9.67 -4.64,16.86 -5.91,21.8 -1.4,4.89 -2.11,7.41 -2.11,7.41 0,0 0.4,-2.6 1.19,-7.63 0.64,-5.06 2.27,-12.44 3.15,-22.23 0.48,-4.87 1.04,-10.31 1.61,-16.3 0.36,-6 0.42,-12.57 0.69,-19.6 0.23,-7.05 -0.45,-14.62 -0.68,-22.63 -0.26,-4 -0.9,-8.09 -1.34,-12.31 -0.5,-4.2 -0.95,-8.53 -2.01,-12.86 -3.03,-17.52 -9.17,-36.33 -19.64,-54.06 -10.33,-17.83 -25.85,-33.94 -45.82,-45.54 -9.75,-6.17 -21.06,-10.46 -32.69,-14.42 -11.89,-3.4 -24.36,-6.2 -37.6,-7.43 -26.31,-2.79 -54.68,-1.37 -83.92,3.51 -58.43,9.96 -120.62,33.56 -180.84,65.85 -7.85,4.27 -15.72,8.56 -23.67,12.87 -8.55,4.55 -17.11,9.1 -25.76,13.68 -17.7,8.57 -35.71,17.28 -54.9,24.63 -38.09,15.04 -79.68,27.13 -124.73,32.13 l -8.4,1.04 -8.59,0.46 -17.26,0.83 c -11.58,0.17 -23.36,-0.28 -35.15,-0.93 -11.76,-1.44 -23.76,-2.05 -35.52,-4.65 l -17.83,-3.44 -17.56,-4.75 c -47.14,-12.98 -90.73,-36.97 -129.41,-65.01 -19.84,-14.54 -38.25,-30.31 -55.63,-46.84 8.59,5.85 20.26,5.85 28.82,-0.95 10.56,-8.38 12.32,-23.71 3.96,-34.26 -8.37,-10.55 -23.72,-12.32 -34.27,-3.93 -10.25,8.12 -12.11,22.79 -4.55,33.27 -14.25,-13.87 -27.82,-28.21 -40.8,-42.83 -30.41,-34.31 -57.62,-70.16 -83.03,-106.35 -50.73,-72.46 -95.1,-146.19 -138.12,-217.33 -6.24,-10.36 -12.43,-20.63 -18.63,-30.87 -1.88,-0.79 -3.81,-1.57 -5.77,-2.35 -4.76,-2.04 -9.59,-4.1 -14.58,-6.22 -9.78,-4.66 -20.56,-7.71 -31.4,-11.5 -2.68,-0.96 -5.41,-1.94 -8.16,-2.91 -2.77,-0.87 -5.63,-1.48 -8.48,-2.25 -5.69,-1.52 -11.45,-3.06 -17.28,-4.61 -5.77,-1.81 -11.91,-2.24 -17.92,-3.55 -6.05,-0.96 -12.09,-2.75 -18.36,-3.11 -6.23,-0.57 -12.5,-1.19 -18.84,-2.01 -6.33,-0.87 -12.8,-0.49 -19.28,-0.83 -25.87,-0.77 -52.9,0.81 -80.12,6.52 -27.25,5.46 -54.67,14.21 -81.31,25.57 -53.24,23.15 -103.82,54.27 -151.64,83.24 -23.89,14.55 -47.07,28.77 -69.45,41.66 -22.51,12.71 -43.9,24.62 -64.37,34.34 -2.1,1.03 -4.14,1.96 -6.2,2.95 -4.37,11.15 -8.71,22.32 -13.11,33.43 -30.44,77.38 -61.55,154.22 -86.85,229.95 -13.67,41.23 -25.71,82.39 -33.84,122.37 -1.01,-13.12 -11.86,-23.51 -25.26,-23.51 -14.06,0 -25.46,11.41 -25.46,25.46 0,14.06 11.4,25.45 25.46,25.45 9.99,0 18.55,-5.8 22.72,-14.17 -3.23,17.64 -5.59,35 -6.96,52.02 -4.35,-5.06 -10.74,-8.3 -17.94,-8.3 -13.16,0 -23.85,10.66 -23.85,23.85 0,13.15 10.69,23.83 23.85,23.83 6.48,0 12.34,-2.59 16.64,-6.8 0.03,12.38 0.73,24.43 2.21,36.15 -2.82,-1.29 -5.92,-2.05 -9.2,-2.05 -12.29,0 -22.24,9.96 -22.24,22.23 0,12.29 9.95,22.24 22.24,22.24 6.41,0 12.15,-2.75 16.21,-7.1 2.05,7.46 4.48,14.77 7.28,21.92 1.36,3.49 2.81,6.94 4.37,10.36 -1.49,-0.34 -3,-0.55 -4.58,-0.55 -11.38,0 -20.61,9.23 -20.61,20.62 0,11.39 9.23,20.63 20.61,20.63 8.93,0 16.46,-5.7 19.35,-13.64 8.72,13.73 19.06,26.74 30.82,38.99 -3.15,-2.38 -7.06,-3.84 -11.33,-3.84 -10.5,0 -19.02,8.51 -19.02,19.02 0,10.5 8.52,19.03 19.02,19.03 10.5,0 19.03,-8.53 19.03,-19.03 0,-3.98 -1.26,-7.67 -3.35,-10.73 22.87,22.88 50.3,42.82 79.61,59.93 15.03,8.79 30.55,16.89 46.27,24.43 7.89,3.72 15.81,7.37 23.81,10.81 8.6,3.73 17.14,7.46 25.6,11.15 69.58,31.17 131.62,69.14 181.34,114.82 24.73,22.9 46.29,47.7 62.71,74.47 16.49,26.64 27.59,55.48 31.16,83.84 3.58,28.36 -0.69,55.49 -9.67,77.7 -8.91,22.34 -21.49,40.17 -34.17,54.37 -12.73,14.3 -25.62,25.19 -37.16,33.99 -11.55,8.77 -21.88,15.47 -30.4,20.56 -8.49,5.13 -15.13,8.79 -19.66,11.17 -4.5,2.39 -6.83,3.62 -6.83,3.62 0,0 2.14,-1.54 6.27,-4.52 4.15,-2.95 10.23,-7.48 17.86,-13.66 7.65,-6.13 16.8,-14.06 26.79,-24.02 9.95,-9.98 20.77,-22.06 30.63,-36.84 9.93,-14.68 18.83,-32.22 23.7,-52.1 4.97,-19.83 5.19,-41.94 -0.73,-63.99 -5.97,-22.06 -17.93,-43.93 -34.67,-64.15 -16.65,-20.26 -37.91,-38.91 -62.02,-55.8 -48.47,-33.66 -108.84,-60.2 -174.56,-79.36 -8.51,-2.39 -17.1,-4.8 -25.72,-7.23 -9.31,-2.57 -18.63,-5.41 -28.02,-8.34 -18.77,-6.01 -37.74,-12.78 -56.77,-20.66 -38.03,-15.74 -76.66,-35.9 -113.18,-63.81 -36.44,-27.66 -70.54,-64.16 -95.3,-107.92 -25,-43.6 -40.07,-93.01 -46.78,-141.41 -6.93,-48.55 -6.58,-96.33 -3.04,-142.44 3.57,-46.18 10.48,-90.83 18.57,-134.46 15.54,-82.45 35.34,-161.19 53.91,-237.47 -0.91,-1.35 -1.95,-2.89 -3.29,-4.88 -3.81,-5.8 -9.38,-14.31 -16.49,-25.14 -3.77,-5.21 -7.92,-10.98 -12.47,-17.25 -2.21,-3.15 -4.43,-6.46 -6.88,-9.78 -2.63,-3.22 -5.32,-6.53 -8.14,-9.96 -10.72,-13.96 -23.93,-28.7 -39.04,-43.56 -3.83,-3.66 -7.71,-7.39 -11.7,-11.2 -3.98,-3.78 -8.57,-7.04 -12.89,-10.68 -8.42,-7.6 -18.25,-13.96 -27.91,-20.98 -20.09,-12.96 -41.83,-25.63 -66.08,-35.99 -24.06,-10.62 -49.96,-20.17 -77.15,-28.63 -27.19,-8.38 -55.77,-15.21 -84.62,-21.65 -57.71,-12.68 -116.94,-24.83 -170.39,-44.15 -6.71,-2.24 -13.32,-4.68 -19.77,-7.36 -6.46,-2.6 -12.88,-5.2 -19.2,-7.75 -12.4,-5.85 -24.79,-10.89 -36.12,-17.38 -5.72,-3.1 -11.38,-6.14 -16.95,-9.14 -5.38,-3.32 -10.67,-6.61 -15.87,-9.83 -10.57,-6.16 -19.98,-13.36 -29.23,-19.89 -9.41,-6.29 -17.37,-13.77 -25.42,-20.15 -8.14,-6.3 -14.94,-13.36 -21.65,-19.58 -3.32,-3.15 -6.53,-6.19 -9.63,-9.13 -3.05,-3.01 -5.75,-6.16 -8.46,-9.05 -5.33,-5.86 -10.22,-11.25 -14.63,-16.11 -3.26,-3.82 -6.04,-7.28 -8.63,-10.54 -54.60998,10.41 -108.64998,21.53 -161.01998,34.84 -77.2,19.75 -151.16,44.85 -210.38,82.67 -29.11,19.18 -54.96,41.01 -74.13,67.24 l -7.27,9.82 -6.37,10.37 c -4.65,6.72 -7.7,14.31 -11.68,21.48 -3.29,7.49 -6.56,15.04 -9.43,22.82 l -3.86,11.87 -1.95,5.93 -1.49,6.15 c -8.46,32.56 -11.58,67.4 -11.08,102.29 0.02,17.45 1.6,34.96 3.11,52.32 1.1,8.71 2.21,17.37 3.29,25.97 1.27,9.18 2.51,18.32 3.75,27.4 4.98,37.81 7.4,74.62 7.08,110.29 -0.36,35.69 -3.44,70.3 -9.89,103.13 -6.55,32.81 -16.49,63.88 -30.51,91.63 -6.85,13.93 -15.26,26.78 -24.15,38.64 -9.48,11.53 -19.23,22.37 -30.5,30.94 -21.95,17.78 -47.02,28.27 -70.47,32.12 -23.48,4.03 -45.16,2.86 -63.79,-0.73 -4.73,-0.58 -9.19,-1.75 -13.53,-2.85 -4.32,-1.11 -8.56,-2.03 -12.57,-3.21 -7.91,-2.75 -15.45,-4.87 -22.14,-7.64 -6.68,-2.82 -12.9,-5.25 -18.46,-7.76 -5.48,-2.7 -10.45,-5.15 -14.91,-7.35 -8.89,-4.33 -15.28,-8.51 -19.78,-10.9 -4.42,-2.52 -6.7,-3.82 -6.7,-3.82 0,0 2.43,1.02 7.13,2.98 4.76,1.83 11.54,5.15 20.85,8.33 4.63,1.62 9.78,3.41 15.48,5.4 5.73,1.78 12.1,3.4 18.87,5.32 6.8,1.88 14.31,3.02 22.13,4.71 3.97,0.65 8.08,1.01 12.29,1.56 4.21,0.53 8.51,1.13 12.97,1.12 17.74,1.22 37.46,-0.32 57.17,-6.29 19.76,-5.81 39.08,-17.09 55.09,-33.75 8.29,-8 15.13,-18 21.74,-28.34 6.11,-10.78 11.8,-22.22 16.12,-34.78 8.92,-24.91 14.27,-52.8 16.45,-82.36 3.84,-54.93 -3.08,-115.77 -17.8,-177.18 4.03,1.78 8.82,1.69 12.9,-0.72 6.76,-3.96 9,-12.66 5.04,-19.39 -3.96,-6.77 -12.66,-9.02 -19.41,-5.05 -1.59,0.92 -2.88,2.13 -3.95,3.49 -1.63,-6.16 -3.26,-12.3 -4.9,-18.5 -2.37,-9.36 -4.78,-18.77 -7.19,-28.24 -4.13,-19.25 -8.33,-38.8 -10.94,-59.19 -5.6,-40.57 -7.51,-83.83 -1.72,-128.77 l 1,-8.42 1.58,-8.46 3.28,-16.97 c 2.57,-11.29 5.79,-22.62 9.22,-33.93 4.17,-11.07 7.61,-22.6 12.91,-33.42 l 7.57,-16.49 8.78,-15.94 c 23.75,-42.75 57.38,-79.4 93.77,-110.37 36.68,-30.84 76.63,-55.46 117.07,-76.96 40.53,-21.42 81.81,-39.37 122.98,-55.49 25.73,-10.05 51.43,-19.41 77.05,-28.36 1.17,-0.8 2.3,-1.57 3.57,-2.5 4.04,-3 8.66,-6.47 13.85,-10.35 5.13,-3.92 10.6,-8.61 16.66,-13.5 5.89,-5.13 12.3,-10.6 18.79,-16.82 13.13,-12.26 26.88,-27.19 40.4,-44.49 26.99,-34.58 51.35998,-80.28 64.94998,-132.9 6.86,-26.27 11.25,-54.09 13.35,-82.57 2.23,-28.49 1.91,-57.68 0.04,-86.81 -1.98,-29.15 -5.91,-58.23 -10.97,-86.72 -5.09,-28.49 -10.8,-56.5 -16.11,-83.77 -5.09,-27.3 -10,-53.88 -13.93,-79.38 -4.07,-25.49 -7.18,-49.92 -9.09998,-72.77 -2.02,-22.84 -2.48,-44.17 -1.1,-63.28 0.69,-9.53 2.02998,-18.51 3.60998,-26.76 l 0.6,-2.31 c -55.69998,-46.09 -111.47998,-91.58 -168.30998,-132.53 -64.69,-46.51 -131.41,-87.14 -198.44,-108.24 -33.4,-10.02 -66.72,-15.82 -99.13,-13.68 l -12.2,0.73 -12.04,1.76 c -8.14,0.76 -15.92,3.29 -23.96,4.83 -7.85,2.29 -15.76,4.65 -23.55,7.42 l -11.58,4.66 -5.82,2.32 -5.65,2.8 c -30.41,14.42 -59.13,34.39 -85.55,57.18 -13.37,11.21 -25.77,23.67 -38.13,35.97 -5.97,6.44 -11.89,12.83 -17.79,19.19 -6.24,6.87 -12.44,13.68 -18.6,20.48 -25.79,28.08 -52.46,53.57 -80.03,76.2 -27.59,22.64 -56.11,42.51 -85.43,58.64 -29.350005,16.05 -59.550005,28.37 -89.834005,35.43 -15.074,3.68 -30.3319997,5.48 -45.145,6.28 -14.91,0.14 -29.461,-0.38 -43.289,-3.54 -27.714,-5.4 -51.858995,-17.87 -69.870995,-33.39 -18.152,-15.42 -31.172,-32.8 -40.383,-49.38 -2.585,-4 -4.554,-8.18 -6.503,-12.22 -1.918,-4.02 -3.938,-7.85 -5.598,-11.69 -2.984,-7.84 -6.176,-14.97 -8.348,-21.88 -2.14,-6.93 -4.269,-13.27 -5.914,-19.14 -1.441,-5.94 -2.765,-11.31 -3.926,-16.16 -2.39,-9.59 -3.3,-17.16 -4.343,-22.13 -0.914,-5.02 -1.383,-7.61 -1.383,-7.61 0,0 0.785,2.52 2.305,7.37 1.656,4.82 3.453,12.17 6.98,21.35 1.734,4.58 3.668,9.69 5.797,15.32 2.312,5.54 5.168,11.46 8.043,17.9 2.918,6.42 6.875,12.9 10.609,20 2.024,3.44 4.399,6.84 6.676,10.42 2.289,3.55 4.609,7.23 7.477,10.65 10.449,14.37 24.289,28.52 41.515,39.79 17.145,11.43 38.198995,19.01 61.249995,20.59 11.461,1.21 23.512,0.05 35.68,-1.52 12.1910003,-2.23 24.6130003,-5.23 37.012,-9.96 24.823,-9.16 49.653,-22.97 73.723,-40.28 48.000005,-34.79 93.310005,-83.44 133.050005,-139.07 5.15,-7.29 10.34,-14.62 15.55,-22 5.65,-7.84 11.31,-15.71 17.03,-23.65 12.1,-15.51 24.42,-31.3 38.36,-46.38 27.52,-30.34 59.45,-59.57 97.63,-83.98 l 7.11,-4.65 7.47,-4.22 15.14,-8.37 c 10.3,-5.29 21.05,-10.09 31.92,-14.72 11.2,-3.9 22.22,-8.67 33.93,-11.54 l 17.49,-4.81 17.86,-3.49 c 48.02,-9.22 97.73,-6.97 144.84,1.06 47.17,8.32 91.71,23.15 134.16,40.35 42.43,17.32 82.69,37.46 121.48,58.68 67.66,37.1 131.36998,77.23 193.03998,116.59 l 2.45,-0.05 c 4.82,-0.36 9.76,-0.75 14.85,-1.15 5.07,-0.29 10.25,-0.94 15.54,-1.75 5.29,-0.81 10.72,-1.35 16.19,-2.43 21.96,-3.9 45.29,-10.32 69.19,-19.01 23.92,-8.68 48.14,-20.43 71.99,-34.39 12.03,-6.85 23.6,-14.88 35.3,-22.9 11.29,-8.65 22.98,-17 33.8,-26.68 11.26,-9.12 21.54,-19.55 32.13,-29.66 10.04,-10.68 20.29,-21.21 29.52,-32.68 9.71,-11.04 18.21,-23.11 26.95,-34.81 4.04,-6.11 8.08,-12.22 12.09,-18.31 l 5.99,-9.1 5.48,-9.41 c 3.65,-6.25 7.28,-12.47 10.88,-18.65 3.35,-6.36 6.67,-12.67 9.97,-18.94 6.84,-12.4 12.69,-25.14 18.78,-37.5 6.35,-12.22 11.2,-24.97 17.14,-36.86 5.39,-12.16 10.13,-24.31 15.31,-35.95 9.23,-23.66 18.07,-46.13 25.21,-67.37 7.5,-21.09 13.43,-40.81 19.1,-58.26 0.51,-1.74 0.98,-3.34 1.49,-5.03 -1.9,-49.44 -4.53,-98.37 -9.1,-146.16 -7.62,-78.87 -20.98,-155.06 -48.6,-218.15 -27.56,-62.9 -71.01,-109.8 -132.36,-135.72 -30.28,-13.16 -63.8,-21.55 -98.02,-26.38 -17.09,-2.63 -34.5,-3.76 -51.78,-4.95 -8.73,-0.23 -17.39,-0.48 -26.01,-0.71 -9.3,-0.15 -18.54,-0.31 -27.7,-0.47 -38.37,-0.84 -75.31,-4.06 -110.71,-9.85 -35.41,-5.81 -69.37,-14.13 -101.05998,-25.58 -31.65,-11.52 -61.06,-26.18 -86.58,-44.4 -12.84,-8.97 -24.38,-19.33 -34.84,-30.01 -10.07,-11.22 -19.39,-22.61 -26.24,-35.19 -7.37,-12.17 -12.19,-25.27 -15.99,-37.87 -1.5,-6.42 -2.87,-12.76 -3.86,-18.96 -0.5,-6.3 -1.44,-12.42 -1.43,-18.38 -0.41,-24.04 4.07,-45.39 10.45,-63.32 1.32,-4.6 3.17,-8.86 4.92,-12.99 1.76,-4.12 3.31,-8.19 5.1,-11.98 3.92,-7.43 7.19,-14.56 10.95,-20.76 3.8,-6.2 7.17,-11.99 10.5,-17.11 3.51,-5 6.69,-9.53 9.54,-13.61 5.65,-8.14 10.75,-13.81 13.8,-17.9 3.17,-3.99 4.8,-6.04 4.8,-6.04 0,0 -1.33,2.26 -3.93,6.64 -2.48,4.48 -6.72,10.72 -11.16,19.49 -2.24,4.37 -4.73,9.23 -7.49,14.58 -2.56,5.44 -5.05,11.53 -7.89,17.95 -2.8,6.47 -4.96,13.73 -7.72,21.23 -1.21,3.81 -2.15,7.84 -3.25,11.93 -1.12,4.05 -2.29,8.24 -2.89,12.64 -3.67,17.33 -4.86,36.99 -1.7,57.17 3.02,20.21 11.43,40.66 25.56,58.6 6.71,9.18 15.57,17.26 24.8,25.14 9.74,7.46 20.18,14.59 31.91,20.52 23.23,12.18 49.92,21.27 78.69998,27.46 57.6,12.2 123.81,13.22 191.31,5.43 8.86,-1.08 17.76,-2.13 26.75,-3.21 9.64,-1.06 19.35,-2.13 29.14,-3.18 19.75,-1.42 39.84,-2.84 60.58,-2.57 41.31,0.13 84.88,4.37 129.2,16.61 l 8.32,2.22 8.27,2.76 16.59,5.72 c 10.98,4.22 21.94,9.08 32.84,14.19 10.56,5.76 21.67,10.88 31.81,17.81 l 15.55,9.99 14.82,11.15 c 39.68,30.12 71.79,69.29 97.71,110.29 2.72,4.38 5.34,8.79 7.93,13.21 -5.9,-6.08 -14.95,-8.61 -23.45,-5.63 -11.66,4.09 -17.78,16.83 -13.72,28.46 4.09,11.66 16.84,17.8 28.47,13.71 11.2,-3.9 17.2,-15.82 14.04,-27.09 19.19,34.42 34.32,70.03 47.22,105.65 15.67,43.58 27.75,87.28 38.02,130.53 16.03,67.9 28.07,134.87 39.11,200.19 0.87,1.16 1.7,2.28 2.58,3.43 3.54,4.4 7.41,8.63 11.18,13.05 3.8,4.37 7.53,8.93 11.89,13.06 16.34,17.38 35.65,33.51 56.6,48.55 21.19,14.8 44.8,27.31 69.51,37.89 24.74,10.68 51.28,17.8 78.05,22.52 13.35,2.56 26.97,3.63 40.42,4.65 6.76,0.12 13.5,0.25 20.23,0.37 6.71,0.18 13.4,-0.57 20.05,-0.78 26.56,-1.85 52.51,-5.49 77.07,-11.51 3.11,-0.62 6.2,-1.25 9.27,-1.91 3.01,-0.8 6.02,-1.64 9.01,-2.45 5.99,-1.72 11.97,-3.2 17.88,-4.74 5.82,-1.86 11.56,-3.74 17.22,-5.61 2.87,-0.87 5.71,-1.75 8.55,-2.64 2.74,-1.03 5.5,-2.1 8.22,-3.12 5.47,-2.06 10.88,-4.1 16.21,-6.1 2.55,-0.98 5.02,-2.07 7.46,-3.15 38.32,-54.55 78.22,-108.74 118.09,-162.84 48.92,-66.48 97.76,-132.88 140.66,-200.3 42.69,-67.26 79.37,-136.23 96.59,-204.36 8.04,-33.91 11.9,-67.51 7.92,-99.77 l -1.45,-12.13 -2.46,-11.92 c -1.21,-8.08 -4.19,-15.69 -6.19,-23.62 -2.76,-7.74 -5.56,-15.46 -8.8,-23.09 l -5.29,-11.29 -2.67,-5.68 -3.13,-5.48 c -16.16,-29.52 -37.76,-57.02 -62.01,-82.1 -11.97,-12.69 -25.13,-24.37 -38.11,-35.97 -6.77,-5.59 -13.51,-11.16 -20.19,-16.67 -7.22,-5.83 -14.39,-11.62 -21.54,-17.37 -29.51,-24.13 -56.51,-49.3 -80.68,-75.49 -24.2,-26.24 -45.71,-53.56 -63.49,-81.92 -17.74,-28.35 -31.77,-57.8 -40.56,-87.62 -4.56,-14.84 -7.23,-29.95 -8.88,-44.7 -1.01,-14.9 -1.32,-29.45 0.99,-43.42 3.81,-27.98 14.89,-52.83 29.33,-71.68 14.34,-19.04 30.93,-33.01 46.95,-43.2 3.85,-2.8 7.92,-5.01 11.82,-7.17 3.92,-2.16 7.62,-4.398 11.36,-6.258 7.66,-3.453 14.59,-7.07 21.37,-9.633 6.78,-2.519 12.98,-5.019 18.75,-6.988 5.83,-1.789 11.16,-3.422 15.89,-4.871 9.45,-2.949 16.95,-4.281 21.87,-5.609 4.96,-1.2 7.51,-1.821 7.51,-1.821 0,0 -2.48,0.942 -7.24,2.719 -4.72,1.941 -11.95,4.152 -20.9,8.231 -4.46,1.98 -9.44,4.222 -14.96,6.652 -5.39,2.637 -11.14,5.82 -17.4,9.058 -6.23,3.301 -12.47,7.63 -19.35,11.75 -3.33,2.25 -6.58,4.8 -10.01,7.28 -3.42,2.49 -6.96,5.02 -10.22,8.09 -13.73,11.25 -27.06,25.88 -37.35,43.73 -10.38,17.78 -16.73,39.24 -16.96,62.34 -0.56,11.51 1.31,23.47 3.59,35.53 2.93,12.04 6.63,24.28 12.08,36.37 10.57,24.27 25.79,48.25 44.45,71.27 37.51,45.91 88.72,88.34 146.53,124.78 7.56,4.74 15.2,9.47 22.86,14.27 8.17,5.17 16.34,10.39 24.62,15.63 16.18,11.18 32.64,22.55 48.5,35.61 31.88,25.72 62.9,55.9 89.5,92.6 l 5.04,6.83 4.66,7.23 9.24,14.61 c 5.85,9.99 11.26,20.45 16.52,31.04 4.54,10.94 9.95,21.66 13.48,33.18 l 5.81,17.21 4.54,17.62 c 2.09,8.34 3.74,16.8 5.15,25.27 -1.94,-3.2 -4.8,-5.86 -8.49,-7.48 -9.58,-4.26 -20.81,0.08 -25.07,9.66 -4.28,9.6 0.07,20.84 9.65,25.09 9.6,4.26 20.83,-0.07 25.09,-9.67 0.45,-1.01 0.77,-2.08 1.04,-3.1 1.99,15.89 2.97,31.86 3.06,47.81 -1.31,-1 -2.69,-1.92 -4.24,-2.6 -10.44,-4.62 -22.58,0.09 -27.21,10.48 -4.65,10.42 0.07,22.61 10.48,27.21 6.72,3.01 14.21,2.03 19.9,-1.8 -0.52,7.96 -1.17,15.92 -2.05,23.78 -0.42,3.67 -0.98,7.3 -1.48,10.95 -1.49,-1.17 -3.04,-2.26 -4.87,-3.04 -11.23,-4.98 -24.34,0.07 -29.32,11.29 -5.01,11.23 0.09,24.37 11.29,29.33 5.34,2.39 11.09,2.44 16.21,0.68 -2.36,11.24 -5.06,22.38 -8.01,33.4 -2.27,-2.68 -5.07,-4.95 -8.5,-6.49 -12.04,-5.34 -26.12,0.11 -31.47,12.13 -5.33,12.05 0.12,26.13 12.14,31.47 5.48,2.43 11.33,2.53 16.65,0.9 -1.69,5.25 -3.4,10.46 -5.16,15.64 -2.71,7.89 -5.59,15.64 -8.5,23.4 -2.3,-6.19 -6.97,-11.5 -13.48,-14.39 -12.85,-5.7 -27.88,0.11 -33.58,12.96 -5.71,12.85 0.08,27.89 12.94,33.6 7.29,3.24 15.27,2.65 21.9,-0.73 -9.71,23.78 -20.06,47.06 -30.83,69.86 -28.9,60.77 -60.22,118.66 -91.5,174.8 2.18,15.7 5.13,32.74 9.35,50.91 2.26,10.82 5.77,21.82 8.78,33.31 3.78,11.27 7.26,23.04 11.9,34.76 8.75,23.61 20.1,47.58 33.27,71.46 13.68,23.61 29.77,46.71 47.85,68.59 18.24,21.79 39.2,41.65 61.7,59.27 5.79,4.22 11.23,8.88 17.26,12.68 l 17.9,11.64 c 12.43,6.87 24.64,13.92 37.54,19.37 25.49,11.3 51.39,20.43 77.15,26.48 3.18,0.88 6.38,1.75 9.54,2.6 3.22,0.65 6.43,1.31 9.6,1.94 6.43,1.16 12.69,2.78 18.96,3.92 7.35,0.99 14.59,2.23 21.75,3.31 8.68,-2.23 17.36,-4.46 26.06,-6.67 79.93,-20.5 159.79,-40.96 235.68,-65.99 75.64,-25.05 147.7,-55.2 204.14,-97.06 27.73,-21.15 51.99,-44.71 69.3,-72.2 l 6.56,-10.3 5.66,-10.78 c 4.17,-7.03 6.69,-14.82 10.16,-22.22 2.76,-7.71 5.5,-15.5 7.82,-23.43 l 3.02,-12.1 1.56,-6.09 1.04,-6.22 c 6.16,-33.07 6.88,-68.05 3.97,-102.8 -1.25,-17.41 -4.04,-34.77 -6.72,-52 -1.72,-8.6 -3.41,-17.17 -5.09,-25.66 -1.91,-9.09 -3.78,-18.13 -5.65,-27.08 -7.59,-37.37 -12.55,-73.93 -14.68,-109.52 -2.13,-35.65 -1.45,-70.4 2.69,-103.6 4.27,-33.19 12.04,-64.86 24.1,-93.5 5.86,-14.37 13.37,-27.77 21.44,-40.22 8.61,-12.17 17.58,-23.65 28.27,-32.98 20.65,-19.27 44.91,-31.5 68.07,-36.95 23.12,-5.62 44.83,-5.97 63.68,-3.7 4.75,0.28 9.29,1.13 13.68,1.93 4.42,0.81 8.7,1.41 12.78,2.34 8.07,2.19 15.74,3.79 22.61,6.05 6.86,2.39 13.23,4.37 18.96,6.48 5.66,2.32 10.8,4.41 15.4,6.32 9.15,3.69 15.8,7.41 20.46,9.48 4.58,2.22 6.94,3.34 6.94,3.34 0,0 -2.47,-0.83 -7.33,-2.46 -4.86,-1.51 -11.85,-4.35 -21.36,-6.88 -4.71,-1.28 -9.99,-2.72 -15.8,-4.3 -5.84,-1.38 -12.31,-2.57 -19.21,-4.02 -6.9,-1.39 -14.46,-2 -22.4,-3.15 -3.99,-0.38 -8.15,-0.44 -12.36,-0.69 -4.24,-0.25 -8.58,-0.54 -13.03,-0.23 -17.76,0.02 -37.35,2.91 -56.6,10.24 -19.29,7.16 -37.77,19.76 -52.6,37.49 -7.74,8.55 -13.87,18.99 -19.73,29.77 -5.34,11.18 -10.21,22.99 -13.65,35.82 -7.21,25.46 -10.58,53.64 -10.75,83.3 -0.01,59.29 12.75,124.55 34.45,189.38 2.86,8.43 5.77,16.95 8.68,25.49 3.02,9.18 6.08,18.4 9.16,27.68 5.45,18.92 10.97,38.12 14.98,58.29 8.41,40.08 13.32,83.12 10.66,128.33 l -0.42,8.5 -1,8.52 -2.07,17.16 c -1.8,11.45 -4.22,22.97 -6.88,34.48 -3.38,11.36 -5.99,23.08 -10.54,34.25 l -6.4,16.97 -7.65,16.5 c -20.73,44.29 -51.75,83.2 -85.92,116.6 -34.45,33.3 -72.58,60.66 -111.45,84.9 -38.95,24.17 -78.87,44.95 -118.84,63.89 -79.98,37.78 -160.13,69.06 -237.52,99.47 -23.57,9.22 -46.87,18.33 -69.9,27.43 -3.55,7.86 -6.69,16.03 -8.96,24.67 -5.41,21.85 -6.17,46.15 -2.24,71.59 3.61,25.47 11.29,52.02 21.76,78.48 10.52,26.45 24.16,52.6 39.67,77.76 15.66,25.08 32.8,49.49 50.87,72.67 18.06,23.18 36.65,45.49 55.45,66.41 37.6,41.88 75.35,78.81 108.9,109.1 7.93,7.16 15.6,13.89 22.99,20.26 24.37,7.95 48.65,15.54 72.88,22.49 76.6,21.87 153.12,37.53 223.36,34.72 34.81,-1.87 68.12,-7.7 97.9,-20.68 l 11.22,-4.8 10.76,-5.74 c 7.38,-3.46 13.86,-8.48 20.92,-12.66 6.6,-4.82 13.25,-9.68 19.63,-14.95 l 9.31,-8.3 4.68,-4.15 4.38,-4.55 c 23.74,-23.86 44,-52.36 61.18,-82.74 8.76,-15.07 16.22,-31 23.7,-46.75 3.43,-8.08 6.86,-16.11 10.24,-24.1 3.55,-8.56 7.08,-17.08 10.57,-25.54 14.8,-35.16 31.27,-68.17 49.53,-98.78 18.32,-30.66 38.43,-59.01 60.56,-84.1 22.22,-25.02 46.43,-46.83 72.55,-63.73 12.94,-8.56 26.69,-15.42 40.37,-21.18 13.97,-5.19 27.84,-9.62 41.92,-11.33 27.9,-4.3 54.85,-0.73 77.05,7.79 22.3,8.36 40.41,20.32 54.71,32.8 3.78,2.9 7.05,6.15 10.25,9.29 3.16,3.14 6.36,6.07 9.22,9.12 5.46,6.36 10.89,11.99 15.27,17.76 4.34,5.8 8.49,11.03 12.03,16.02 3.39,5.09 6.42,9.72 9.18,13.86 5.5,8.23 8.89,15.05 11.59,19.36 2.54,4.42 3.85,6.7 3.85,6.7 0,0 -1.58,-2.1 -4.67,-6.18"
         style="fill:#231f20;fill-opacity:1;fill-rule:nonzero;stroke:none"
         id="path388"
         inkscape:connector-curvature="0" /><path
         d="m 2088.435,-2493.2999 c -7.63,-4.32 -14.96,-8.5 -22.02,-12.52 -6.78,-4.48 -13.29,-8.78 -19.48,-12.87 -6.16,-4.12 -11.5,-8.72 -16.8,-12.67 l -0.54,-0.43 c -2.4,-1.87 -4.77,-3.72 -7.03,-5.49 -2.29,-2.07 -4.52,-4.05 -6.63,-5.96 -4.28,-3.83 -8.19,-7.35 -11.72,-10.54 -6.79,-6.64 -11.79,-12.19 -15.36,-15.82 -3.52,-3.69 -5.4,-5.66 -5.4,-5.66 l 11.11,-9.65 c 0,0 1.77,1.94 5.08,5.55 3.36,3.54 8.05,8.99 14.43,15.53 l 2.18,2.06 c 2.74,2.59 5.67,5.32 8.86,8.31 2.01,1.89 4.09,3.85 6.26,5.89 2.32,1.88 4.7,3.83 7.16,5.83 5.01,3.91 10.07,8.48 15.94,12.58 5.89,4.08 12.07,8.36 18.54,12.82 6.75,4.04 13.77,8.24 21.04,12.59 7.58,3.83 15.31,7.99 23.44,11.92 16.45,7.45 34.11,14.75 53,20.62 4.71,1.47 9.47,2.98 14.27,4.48 4.87,1.26 9.76,2.55 14.67,3.84 9.84,2.79 20,4.65 30.17,6.92 20.42,3.94 41.39,7.23 62.51,9.33 43.67,4.72 87.6,5.59 128.64,5.18 38.41,-0.37 74.31,-1.85 105.18,-2.33 16,-0.2 30.65,-0.31 43.65,0.27 13,0.45 24.31,1.58 33.53,3.07 9.18,1.59 16.29,3.75 20.88,5.59 4.52,2.14 6.93,3.27 6.93,3.27 0,0 -2.43,-1.08 -6.97,-3.13 -4.68,-1.74 -11.74,-3.71 -20.93,-5.09 -9.22,-1.31 -20.49,-2.19 -33.48,-2.34 -12.96,-0.33 -27.59,0.12 -43.55,0.66 -36.24,1.34 -79.48,4.23 -125.74,5.13 -7.86,0.15 -15.82,0.24 -23.84,0.25 -27.8,0.07 -56.38,-0.74 -85.01,-3.2 -21.34,-1.66 -42.59,-4.53 -63.42,-8.09 -10.35,-2.07 -20.71,-3.74 -30.78,-6.36 -5.02,-1.21 -10.05,-2.41 -15.03,-3.59 -4.91,-1.44 -9.81,-2.85 -14.63,-4.26 -19.43,-5.57 -37.68,-12.65 -54.74,-19.94 -8.44,-3.85 -16.5,-7.96 -24.37,-11.75"
         style="fill:#ffffff;fill-opacity:1;fill-rule:nonzero;stroke:none"
         id="path750"
         inkscape:connector-curvature="0" /></g></g></svg>